<svg id="圖層_1" data-name="圖層 1" xmlns="http://www.w3.org/2000/svg" viewBox="0 0 435 147"><defs><style>.cls-1,.cls-2{fill:#fff;}.cls-1{fill-rule:evenodd;}</style></defs><polygon class="cls-1" points="80.65 88.23 90.07 88.23 85.43 95.65 80.65 88.23 80.65 88.23"/><polygon class="cls-1" points="92.19 88.23 96.75 95.65 101.31 88.23 92.19 88.23 92.19 88.23"/><polygon class="cls-1" points="91.17 88.23 86.26 96.02 86.26 111.11 95.97 111.11 95.97 96.02 91.17 88.23 91.17 88.23"/><path class="cls-1" d="M81.74,56.84a5.88,5.88,0,0,1,1-3.69c.22-.31.71,0,.65.33,0,0,.42.36-.09.55,0,0-1,.53-1.16,2.81A.23.23,0,0,1,81.74,56.84Z"/><path class="cls-1" d="M89.9,74a5.71,5.71,0,0,1,1-3.67c.23-.32.71,0,.65.33,0,0,.43.36-.09.55,0,0-1,.53-1.15,2.79A.23.23,0,0,1,89.9,74Z"/><path class="cls-1" d="M107,74a5.75,5.75,0,0,1,1-3.67c.2-.32.7,0,.63.33,0,0,.43.36-.08.55,0,0-1,.53-1.16,2.79A.22.22,0,0,1,107,74Z"/><path class="cls-1" d="M115.76,56.84a5.84,5.84,0,0,1,1-3.69c.22-.31.71,0,.64.33,0,0,.43.36-.08.55,0,0-1,.53-1.16,2.81A.22.22,0,0,1,115.76,56.84Z"/><path class="cls-1" d="M98.81,56.84a5.85,5.85,0,0,1,1-3.69c.21-.31.7,0,.63.33,0,0,.43.36-.08.55,0,0-1,.53-1.17,2.81A.22.22,0,0,1,98.81,56.84Z"/><path class="cls-1" d="M81.74,38.5a5.84,5.84,0,0,1,1-3.68c.22-.32.71,0,.65.32,0,0,.42.36-.09.56,0,0-1,.52-1.16,2.8A.24.24,0,0,1,81.74,38.5Z"/><path class="cls-1" d="M98.81,38.5a5.8,5.8,0,0,1,1-3.68c.21-.32.7,0,.63.32,0,0,.43.36-.08.56,0,0-1,.52-1.17,2.8A.23.23,0,0,1,98.81,38.5Z"/><polygon class="cls-1" points="37.32 58.67 50.85 35.93 50.85 58.67 37.32 58.67"/><path class="cls-1" d="M72.7,74a5.75,5.75,0,0,1,1-3.67c.22-.32.71,0,.64.33,0,0,.42.36-.09.55,0,0-1,.53-1.15,2.79A.23.23,0,0,1,72.7,74Z"/><path class="cls-2" d="M67.87,69.37h0a1.72,1.72,0,0,0,.28-.47A1.72,1.72,0,0,1,67.87,69.37Z"/><path class="cls-2" d="M60.54,68.14h-.09l.09.16Z"/><path class="cls-2" d="M63.06,55.12l.25.06a.16.16,0,0,0,.09,0L52.09,35.93V58.67h5.28a1.2,1.2,0,0,1,.07-.42A5,5,0,0,1,63.06,55.12Z"/><path class="cls-2" d="M65.79,74.16V71.38h-.14a9,9,0,0,1-5.11-1.76v5.53H52.06v-7h7.56c-.89-1.68-2.49-5-2.55-7.44a4.84,4.84,0,0,1,0-.77H37.2v47.18H65.79V81.86C63.49,76.74,65.79,74.16,65.79,74.16ZM50.64,83H42.22V76.52h8.42Zm0-7.87H42.22v-7h8.42ZM60.54,83H52.06V76.52h8.48Z"/><path class="cls-1" d="M65.32,56.84a5.84,5.84,0,0,1,1-3.69c.23-.31.71,0,.65.33,0,0,.42.36-.09.55,0,0-1,.53-1.16,2.81A.22.22,0,0,1,65.32,56.84Z"/><path class="cls-1" d="M84.31,69.41a2.74,2.74,0,0,0,.76.11,2.45,2.45,0,0,0,2-.82l0-.06a.81.81,0,0,0,.1-.21s0,0,0-.05c1.91-3.27,2.84-6.46,2.63-8-.6-3.43-3-4.17-5.58-4.53-3.39-.45-3.39,1.1-4.93.56-2.79-.36-4.69,1.35-4.61,4.33s2.91,7.81,2.91,7.81l0,0a2.37,2.37,0,0,0,2,1,3.2,3.2,0,0,0,1-.16,1.66,1.66,0,0,1-.25-.45,1.66,1.66,0,0,0,.25.45h0a2.41,2.41,0,0,0,3.67,0Zm-2-12.1c-.94,0-1.71-.22-1.71-.48s.77,0,1.71,0,1.72-.26,1.72,0S83.24,57.31,82.29,57.31ZM92.42,73c-3.4-.44-3.4,1.1-4.94.57-2.79-.36-4.69,1.33-4.61,4.33s2.91,7.8,2.91,7.8l0,0a2.39,2.39,0,0,0,2,1,3,3,0,0,0,.94-.17l-.08-.15a2.29,2.29,0,0,0,1.94,1,2.34,2.34,0,0,0,1.82-.82h0a1.86,1.86,0,0,0,.29-.49,1.86,1.86,0,0,1-.29.49,2.44,2.44,0,0,0,.77.13,2.4,2.4,0,0,0,1.93-.84l0,0,.12-.21a.36.36,0,0,1,0-.07c1.91-3.26,2.84-6.44,2.64-8C97.4,74.11,95,73.38,92.42,73Zm-2,1.49c-.94,0-1.71-.22-1.71-.48s.77,0,1.71,0,1.72-.26,1.72,0S91.39,74.5,90.44,74.5Zm2.33,11.57a1.81,1.81,0,0,0,.12-.56A1.56,1.56,0,0,1,92.77,86.07ZM109.48,73c-3.39-.44-3.39,1.1-4.92.57-2.8-.36-4.7,1.33-4.63,4.33s2.92,7.8,2.92,7.8l0,0a2.4,2.4,0,0,0,2,1,3.2,3.2,0,0,0,.94-.17s0,0,0,0a2.28,2.28,0,0,0,1.88.91,2.33,2.33,0,0,0,1.81-.82h0a1.64,1.64,0,0,0,.28-.48,1.64,1.64,0,0,1-.28.48,2.57,2.57,0,0,0,2.71-.71l0,0,.12-.21a.15.15,0,0,0,0-.07c1.92-3.26,2.84-6.44,2.64-8C114.46,74.11,112.08,73.38,109.48,73Zm-2,1.49c-.94,0-1.72-.22-1.72-.48s.78,0,1.72,0,1.72-.26,1.72,0S108.46,74.5,107.51,74.5Zm2.33,11.55a1.93,1.93,0,0,0,.12-.54A1.93,1.93,0,0,1,109.84,86.05Zm14-25.7c-.61-3.43-3-4.17-5.58-4.53-3.41-.45-3.41,1.1-4.94.56-2.79-.36-4.69,1.35-4.62,4.33s2.92,7.81,2.92,7.81l0,0a2.37,2.37,0,0,0,2,1,3.13,3.13,0,0,0,.93-.16,1.88,1.88,0,0,1-.24-.44,1.7,1.7,0,0,0,.24.44h0a2.35,2.35,0,0,0,1.86.87,2.31,2.31,0,0,0,1.83-.84v0a2.7,2.7,0,0,0,.77.11A2.41,2.41,0,0,0,121,68.7l0-.06.12-.21,0-.05C123.13,65.11,124.05,61.92,123.86,60.35Zm-7.57-3c-.94,0-1.7-.22-1.7-.48s.76,0,1.7,0,1.72-.26,1.72,0S117.24,57.31,116.29,57.31Zm-14.91,12.1a2,2,0,0,0,.27-.47,2,2,0,0,1-.27.47,2.68,2.68,0,0,0,.76.11,2.43,2.43,0,0,0,1.94-.82l0-.06c0-.07.08-.13.13-.21a.13.13,0,0,1,0-.05c1.91-3.27,2.83-6.46,2.63-8-.6-3.43-3-4.17-5.58-4.53-3.39-.45-3.39,1.1-4.93.56-2.79-.36-4.69,1.35-4.62,4.33s2.92,7.81,2.92,7.81l0,0a2.38,2.38,0,0,0,2,1,3.2,3.2,0,0,0,.95-.16,1.82,1.82,0,0,1-.24-.43,1.82,1.82,0,0,0,.24.43h0a2.42,2.42,0,0,0,3.67,0Zm-2-12.1c-.94,0-1.71-.22-1.71-.48s.77,0,1.71,0,1.71-.26,1.71,0S100.31,57.31,99.36,57.31Zm-21.7-7.09a2.37,2.37,0,0,0,2,1,2.91,2.91,0,0,0,1-.16,2.09,2.09,0,0,1-.26-.46,2.09,2.09,0,0,0,.26.46h0a2.31,2.31,0,0,0,1.85.86,2.37,2.37,0,0,0,1.83-.83v0a3.17,3.17,0,0,0,.76.11,2.42,2.42,0,0,0,2-.83l0-.05a.81.81,0,0,0,.1-.21s0,0,0-.05c1.91-3.28,2.84-6.46,2.63-8-.6-3.44-3-4.17-5.58-4.53-3.39-.45-3.39,1.09-4.93.57-2.79-.38-4.69,1.33-4.61,4.33s2.91,7.8,2.91,7.8Zm4.63-11.73c.95,0,1.72-.27,1.72,0s-.77.48-1.72.48-1.71-.22-1.71-.48S81.35,38.49,82.29,38.49ZM94.73,50.22a2.38,2.38,0,0,0,2,1,2.91,2.91,0,0,0,.95-.16h0a2.44,2.44,0,0,0,3.68.06h0a3.1,3.1,0,0,0,.76.11,2.4,2.4,0,0,0,1.94-.83l0-.05c0-.07.08-.13.13-.21a.13.13,0,0,1,0-.05c1.91-3.28,2.83-6.46,2.63-8-.6-3.44-3-4.17-5.58-4.53-3.39-.45-3.39,1.09-4.93.57-2.79-.38-4.69,1.33-4.62,4.33s2.92,7.8,2.92,7.8Zm4.63-11.73c1,0,1.71-.27,1.71,0s-.76.48-1.71.48-1.71-.22-1.71-.48S98.42,38.49,99.36,38.49ZM75.22,73c-3.39-.44-3.39,1.1-4.93.57-2.79-.36-4.69,1.33-4.61,4.33s2.91,7.8,2.91,7.8l0,0a2.36,2.36,0,0,0,2,1,3.2,3.2,0,0,0,.95-.17.13.13,0,0,0,0,0,2.31,2.31,0,0,0,1.88.91,2.34,2.34,0,0,0,1.82-.82h0a2.38,2.38,0,0,0,.76.13A2.41,2.41,0,0,0,78,85.89l0,0a2.12,2.12,0,0,1,.11-.21l0-.07c1.92-3.26,2.85-6.44,2.64-8C80.2,74.11,77.81,73.38,75.22,73Zm-2,1.49c-1,0-1.72-.22-1.72-.48s.77,0,1.72,0S75,73.76,75,74,74.19,74.5,73.25,74.5Zm-7.18-4.27a2.3,2.3,0,0,0,1.8-.82h0a1.83,1.83,0,0,0,.28-.46,1.83,1.83,0,0,1-.28.46,2.83,2.83,0,0,0,.78.11,2.43,2.43,0,0,0,1.94-.82l0-.06a1.43,1.43,0,0,1,.11-.21l0-.05c1.91-3.27,2.83-6.46,2.64-8-.61-3.43-3-4.17-5.58-4.53-3.41-.45-3.41,1.1-4.94.56-2.78-.36-4.69,1.35-4.6,4.33s2.9,7.81,2.9,7.81l0,0a2.37,2.37,0,0,0,2,1,3.08,3.08,0,0,0,.94-.16.83.83,0,0,0-.07-.13A2.31,2.31,0,0,0,66.07,70.23Zm-1.93-13.4c0-.26.77,0,1.73,0s1.71-.26,1.71,0-.77.48-1.71.48S64.14,57.09,64.14,56.83Z"/><path class="cls-2" d="M75.56,137.34a63.67,63.67,0,0,1-45-108.69,63.67,63.67,0,1,1,90,90.05,63.2,63.2,0,0,1-45,18.64Zm0-118.48a54.82,54.82,0,1,0,54.8,54.82,54.88,54.88,0,0,0-54.8-54.82Z"/><path class="cls-2" d="M104.9,111.24a3.31,3.31,0,1,1,3.32-3.32,3.32,3.32,0,0,1-3.32,3.32Zm0-6.06a2.75,2.75,0,1,0,2.75,2.74,2.76,2.76,0,0,0-2.75-2.74Z"/><path class="cls-2" d="M103.5,109.68v-3.5H105a2.12,2.12,0,0,1,.82.1.74.74,0,0,1,.41.33,1,1,0,0,1,.15.55,1,1,0,0,1-.23.65,1.08,1.08,0,0,1-.7.33,2.08,2.08,0,0,1,.39.29,5.9,5.9,0,0,1,.4.57l.43.68h-.86l-.51-.76a4.73,4.73,0,0,0-.36-.51.71.71,0,0,0-.22-.16,1.58,1.58,0,0,0-.35,0h-.15v1.45Zm.7-2h.53a2.6,2.6,0,0,0,.63,0,.5.5,0,0,0,.2-.15.51.51,0,0,0,.07-.27.43.43,0,0,0-.09-.28.47.47,0,0,0-.27-.14H104.2Z"/><path class="cls-2" d="M175.79,80.77l-3,0s.39,0-1.89,0q-5.59-.08-8.64-3.07a9.71,9.71,0,0,1-3.18-7.48A10,10,0,0,1,161.89,63q2.78-2.93,8.11-3h9.31V56.35c0-3.05-2.24-4.53-6.86-4.44a11.92,11.92,0,0,0-4,.53,4.91,4.91,0,0,0-2.39,2.14l-5.29-4.16q3.84-5.16,11.31-5c4.21,0,7.56.78,10.08,2.46s3.78,4.7,3.82,8.92v13.5C186,81.12,175.79,80.77,175.79,80.77Zm3.52-15.06h-8.07c-3.92.09-5.85,1.48-5.81,4.17a3.71,3.71,0,0,0,1.52,3q1.45,1.36,4.81,1.37c2.82,0,4.81-.3,6-1s1.58-2.39,1.58-5Z"/><path class="cls-2" d="M231.18,45.82h6.72v3.6a11.36,11.36,0,0,1,8.62-4q6.15.16,9,4.52a9.26,9.26,0,0,1,1.89,4.3,55.31,55.31,0,0,1,.48,8.91,56,56,0,0,1-.48,8.79,9.64,9.64,0,0,1-1.9,4.36,10.21,10.21,0,0,1-3.63,3.19,11.52,11.52,0,0,1-5.35,1.3,9.11,9.11,0,0,1-4.6-1.16,14.4,14.4,0,0,1-4-2.92V94.33h-6.72Zm13.32,28a6.62,6.62,0,0,0,3.77-.94,5.33,5.33,0,0,0,2-2.47,13.07,13.07,0,0,0,.87-3.47q.06-1.86.06-3.84c0-1.38,0-2.72-.06-4a12.33,12.33,0,0,0-.87-3.47,5,5,0,0,0-2-2.47,7.37,7.37,0,0,0-3.77-.83,5.89,5.89,0,0,0-3.58,1,5.66,5.66,0,0,0-2,2.53,12.7,12.7,0,0,0-.8,3.41,36.12,36.12,0,0,0-.19,3.9,32.11,32.11,0,0,0,.19,3.67,12.82,12.82,0,0,0,.8,3.51,5.74,5.74,0,0,0,2,2.54A5.83,5.83,0,0,0,244.5,73.84Z"/><path class="cls-2" d="M195.93,45.82h6.71v3.6a11.4,11.4,0,0,1,8.63-4q6.16.16,9,4.52a9.37,9.37,0,0,1,1.9,4.3,57.81,57.81,0,0,1,.48,8.91,57.24,57.24,0,0,1-.48,8.79,9.75,9.75,0,0,1-1.91,4.36,10.16,10.16,0,0,1-3.64,3.19,11.45,11.45,0,0,1-5.34,1.3,9.14,9.14,0,0,1-4.6-1.16,14.59,14.59,0,0,1-4-2.92V94.33h-6.71Zm13.32,28A6.59,6.59,0,0,0,213,72.9a5.33,5.33,0,0,0,2-2.47,13.07,13.07,0,0,0,.87-3.47q.06-1.86.06-3.84c0-1.38,0-2.72-.06-4a12.33,12.33,0,0,0-.87-3.47,5,5,0,0,0-2-2.47,7.34,7.34,0,0,0-3.77-.83,5.88,5.88,0,0,0-3.57,1,5.62,5.62,0,0,0-2,2.53,14,14,0,0,0-.81,3.41c-.12,1.29-.19,2.59-.19,3.9s.07,2.45.19,3.67a14,14,0,0,0,.81,3.51,5.7,5.7,0,0,0,2,2.54A5.82,5.82,0,0,0,209.25,73.84Z"/><path class="cls-2" d="M266.54,31.85h6.72V71.47q0,2.37,2.52,2.37h2.32v6.51h-3a9.51,9.51,0,0,1-6.06-1.88c-1.67-1.28-2.51-3.44-2.51-6.46Z"/><path class="cls-2" d="M289.16,65.71q0,4.17,2.32,6.33a7.58,7.58,0,0,0,5.67,2.2,9.94,9.94,0,0,0,7.33-3.36l4.86,4.29a15.56,15.56,0,0,1-12,5.59,17,17,0,0,1-5.16-.8,12.12,12.12,0,0,1-2.44-1.17,11.49,11.49,0,0,1-2.36-1.56,13.83,13.83,0,0,1-3.45-5.39,22,22,0,0,1-1.44-8.65,24.76,24.76,0,0,1,1.25-8.52,15,15,0,0,1,3.22-5.46,12,12,0,0,1,4.47-2.92,14,14,0,0,1,4.84-.9,13.73,13.73,0,0,1,9.7,3.89Q310,53.18,310,60v5.71ZM303.3,60c-.09-2.7-.78-4.74-2.1-6.12a7.25,7.25,0,0,0-9.94,0c-1.28,1.38-2,3.42-2.1,6.12Z"/><path class="cls-2" d="M332.25,73.84,350.63,50.1a8.88,8.88,0,0,0,1.45-2.67,9.6,9.6,0,0,0,.26-2.19,7.29,7.29,0,0,0-1.65-4.77,6.13,6.13,0,0,0-4.85-2.1,6.31,6.31,0,0,0-4.62,1.83A8.11,8.11,0,0,0,339,45.37h-6.71a15.09,15.09,0,0,1,3.93-10,12.42,12.42,0,0,1,9.13-3.92,13.25,13.25,0,0,1,9.84,4,14.34,14.34,0,0,1,1.07,18.41L341.09,73.44h18v6.91H332.25Z"/><path class="cls-2" d="M365.35,45.37q.06-6.7,4.16-10.33a13,13,0,0,1,9.16-3.59A13.14,13.14,0,0,1,388,35q3.9,3.63,4,10.35V66.78q-.13,6.69-4,10.32a13.42,13.42,0,0,1-9.32,3.66,13.24,13.24,0,0,1-9.16-3.66q-4.1-3.61-4.16-10.3Zm20,.43q-.19-7.29-6.64-7.43-6.48.14-6.61,7.43V66.4c.09,4.92,2.29,7.39,6.61,7.44s6.51-2.52,6.64-7.44Z"/><path class="cls-2" d="M407.12,52.31h2.33a7.05,7.05,0,0,0,5.35-2,6.66,6.66,0,0,0,1.91-5,7.18,7.18,0,0,0-2-5,6.84,6.84,0,0,0-4.9-2,6.12,6.12,0,0,0-3.94,1.44,7.29,7.29,0,0,0-2.51,4.44h-6.74a14.28,14.28,0,0,1,4.22-9.08,12.15,12.15,0,0,1,8.7-3.72,13.31,13.31,0,0,1,10.19,4.23,14.21,14.21,0,0,1,3.67,9.58,14.81,14.81,0,0,1-1,5.39,11.31,11.31,0,0,1-4.15,4.62,12.18,12.18,0,0,1,4.42,4.79,13.87,13.87,0,0,1,1.3,5.86c-.05,4.54-1.41,8.13-4.09,10.74a13.9,13.9,0,0,1-10.18,4.1,12.68,12.68,0,0,1-8.5-3.19c-2.48-2.13-4.07-5.21-4.8-9.23h6.73a9.79,9.79,0,0,0,2.55,3.93,6.28,6.28,0,0,0,4.45,1.57,6.71,6.71,0,0,0,5-2.1,7.6,7.6,0,0,0,2.12-5.61,7.88,7.88,0,0,0-2.12-5.73,7.1,7.1,0,0,0-5.16-2h-2.88Z"/><path class="cls-2" d="M284.32,87.92h3.46v15.79h.09a10.34,10.34,0,0,1,3.3-2.62,9.47,9.47,0,0,1,4.16-.93,11.87,11.87,0,0,1,4.45.82,9.93,9.93,0,0,1,3.44,2.29,10.38,10.38,0,0,1,2.22,3.46,12.2,12.2,0,0,1,0,8.69,10.76,10.76,0,0,1-2.2,3.46,9.76,9.76,0,0,1-3.3,2.28,10.19,10.19,0,0,1-4.08.83,9.63,9.63,0,0,1-4.9-1.22,8,8,0,0,1-3.09-3h-.09v3.68h-3.46Zm3.46,23.16a8.53,8.53,0,0,0,.52,3,6.89,6.89,0,0,0,1.48,2.44,7,7,0,0,0,2.33,1.64,8,8,0,0,0,6.07,0,6.94,6.94,0,0,0,3.82-4.08,9.29,9.29,0,0,0,0-6.07,7.1,7.1,0,0,0-1.48-2.44,7.2,7.2,0,0,0-2.34-1.65,8.1,8.1,0,0,0-6.07,0,7.05,7.05,0,0,0-2.33,1.65A6.81,6.81,0,0,0,288.3,108,8.55,8.55,0,0,0,287.78,111.08Z"/><path class="cls-2" d="M312.49,105.62c0-1,0-1.83-.09-2.66s-.09-1.58-.09-2.27h3.28c0,.57,0,1.13.05,1.69s0,1.14,0,1.73h.09a6,6,0,0,1,1-1.46,7.27,7.27,0,0,1,1.52-1.27,8.25,8.25,0,0,1,2-.88,8.38,8.38,0,0,1,2.4-.34,5.78,5.78,0,0,1,.71,0,3.09,3.09,0,0,1,.71.18l-.22,3.5a6.41,6.41,0,0,0-1.87-.27,5.25,5.25,0,0,0-4.63,2.07,9.72,9.72,0,0,0-1.44,5.65v10.11h-3.46Z"/><path class="cls-2" d="M347.09,116.53c0,1,0,1.83.08,2.66s.09,1.58.09,2.26H344c0-.56,0-1.12,0-1.68s-.05-1.14-.05-1.73h-.09a5.76,5.76,0,0,1-1,1.46,7.32,7.32,0,0,1-1.52,1.27,8.25,8.25,0,0,1-2,.88,8,8,0,0,1-2.4.34,9,9,0,0,1-3.52-.63,6.38,6.38,0,0,1-2.46-1.72,6.92,6.92,0,0,1-1.45-2.69,12.08,12.08,0,0,1-.46-3.44V100.69h3.45v12.47a6.61,6.61,0,0,0,1.16,4.12,4.23,4.23,0,0,0,3.6,1.51,6.79,6.79,0,0,0,2.9-.57,5.34,5.34,0,0,0,2-1.64,7.62,7.62,0,0,0,1.15-2.53,13.11,13.11,0,0,0,.37-3.24V100.69h3.47Z"/><path class="cls-2" d="M354.54,105.62c0-1,0-1.83-.1-2.66s-.08-1.58-.08-2.27h3.28c0,.57,0,1.13,0,1.69s.05,1.14.05,1.73h.09a6,6,0,0,1,1-1.46,7.09,7.09,0,0,1,1.53-1.27,8.25,8.25,0,0,1,2-.88,8.38,8.38,0,0,1,2.4-.34,9.15,9.15,0,0,1,3.52.62,6.82,6.82,0,0,1,2.47,1.74,6.9,6.9,0,0,1,1.43,2.68,11.73,11.73,0,0,1,.47,3.44v12.81h-3.46V109a6.55,6.55,0,0,0-1.16-4.12,4.19,4.19,0,0,0-3.58-1.51,6.8,6.8,0,0,0-2.91.57,5.28,5.28,0,0,0-2,1.65,7.39,7.39,0,0,0-1.15,2.52,13.09,13.09,0,0,0-.38,3.24v10.11h-3.45Z"/><path class="cls-2" d="M394.85,105.89a7,7,0,0,0-2.39-1.94,6.81,6.81,0,0,0-2.84-.59,7.52,7.52,0,0,0-3.06.59,5.93,5.93,0,0,0-2.2,1.67,7.45,7.45,0,0,0-1.31,2.46,10,10,0,0,0-.44,3,8.65,8.65,0,0,0,.51,3,7.88,7.88,0,0,0,1.42,2.46,6.34,6.34,0,0,0,2.2,1.66,6.75,6.75,0,0,0,2.88.6,6.11,6.11,0,0,0,5.28-2.57l2.57,2.44a9,9,0,0,1-3.55,2.53,12.2,12.2,0,0,1-8.69,0,9.54,9.54,0,0,1-3.4-2.27,10.38,10.38,0,0,1-2.17-3.45,12.19,12.19,0,0,1-.78-4.39,12.05,12.05,0,0,1,.78-4.35,10.18,10.18,0,0,1,2.2-3.46,9.91,9.91,0,0,1,3.39-2.29,11.45,11.45,0,0,1,4.37-.82,12.06,12.06,0,0,1,4.37.8,9.49,9.49,0,0,1,3.61,2.49Z"/><path class="cls-2" d="M402.35,87.92h3.45v15.66h.1a5.52,5.52,0,0,1,1-1.22,7.26,7.26,0,0,1,1.49-1.09,8.86,8.86,0,0,1,1.93-.79,7.91,7.91,0,0,1,2.26-.32,9.21,9.21,0,0,1,3.53.62,6.61,6.61,0,0,1,3.9,4.42,12.07,12.07,0,0,1,.47,3.44v12.81H417V109a6.61,6.61,0,0,0-1.15-4.12,4.23,4.23,0,0,0-3.59-1.51,6.84,6.84,0,0,0-2.91.57,5.17,5.17,0,0,0-2,1.65,7,7,0,0,0-1.15,2.52,12.62,12.62,0,0,0-.39,3.24v10.11h-3.45Z"/></svg>